<?xml version="1.0" encoding="UTF-8"?>
<svg width="180" height="180" viewBox="0 0 180 180" fill="none" xmlns="http://www.w3.org/2000/svg">
  <rect width="180" height="180" rx="20" fill="#E83D22"/>
  <path d="M90 35C67.9 35 50 52.9 50 75C50 97.1 67.9 115 90 115C112.1 115 130 97.1 130 75C130 52.9 112.1 35 90 35ZM90 105C73.4 105 60 91.6 60 75C60 58.4 73.4 45 90 45C106.6 45 120 58.4 120 75C120 91.6 106.6 105 90 105Z" fill="white"/>
  <path d="M90 60C82.3 60 76 66.3 76 74C76 81.7 82.3 88 90 88C97.7 88 104 81.7 104 74C104 66.3 97.7 60 90 60Z" fill="white"/>
  <text x="90" y="140" font-family="Arial, sans-serif" font-size="18" font-weight="bold" text-anchor="middle" fill="white">SHOPEE</text>
  <text x="90" y="155" font-family="Arial, sans-serif" font-size="10" text-anchor="middle" fill="white">DELIVERY</text>
</svg>
